<svg width="130" height="20" xmlns="http://www.w3.org/2000/svg" xmlns:svg="http://www.w3.org/2000/svg">
 <g>
  <title>Layer 1</title>
  <path fill="#ffffff" d="m28.846001,4.36c0,0.3 -0.096001,0.543 -0.287998,0.729s-0.438,0.279 -0.738003,0.279c-0.287998,0 -0.524998,-0.096 -0.710999,-0.288c-0.186001,-0.192 -0.278999,-0.432 -0.278999,-0.72c0,-0.288 0.096001,-0.528 0.287998,-0.72c0.192001,-0.192 0.431999,-0.288 0.720001,-0.288c0.299999,0 0.542999,0.093 0.729,0.279s0.278999,0.43 0.278999,0.729zm-0.216999,11.322001l-1.565998,0l0,-8.712l1.565998,0l0,8.712z" id="svg_1"/>
  <path fill="#ffffff" d="m38.841,7.006c0,1.068 -0.312,1.926 -0.936001,2.574c-0.84,0.888 -2.057999,1.332 -3.653999,1.332c-0.540001,0 -0.948002,-0.035998 -1.223999,-0.108l0,4.878l-1.548,0l0,-11.988c0.888,-0.156 1.871998,-0.234 2.952,-0.234c1.487999,0 2.604,0.331 3.348,0.99c0.708,0.636 1.062,1.488 1.062,2.556zm-1.565998,0.072c0,-0.768 -0.251999,-1.359 -0.756001,-1.773s-1.188,-0.621 -2.051998,-0.621c-0.588001,0 -1.068001,0.042 -1.440002,0.126l0,4.734c0.299999,0.084002 0.714001,0.126 1.242001,0.126c0.948002,0 1.686001,-0.225 2.214001,-0.675c0.528,-0.45 0.792,-1.089 0.792,-1.917z" id="svg_2"/>
  <path fill="#ffffff" d="m48.105,15.682l-1.564999,0l0,-5.058002c0,-1.691998 -0.653999,-2.537998 -1.961998,-2.537998c-0.480003,0 -0.909,0.146998 -1.287003,0.441s-0.645,0.669 -0.800999,1.125c-0.061001,0.191998 -0.09,0.438 -0.09,0.738l0,5.292l-1.566002,0l0,-12.762l1.566002,0l0,5.382l0.035999,0c0.276001,-0.468 0.657001,-0.837 1.143002,-1.107s1.004997,-0.405 1.556999,-0.405c0.756001,0 1.396999,0.24 1.925999,0.72c0.695999,0.648 1.044003,1.632 1.044003,2.952l0,5.22l-0.001003,0z" id="svg_3"/>
  <path fill="#ffffff" d="m58.569,11.254c0,1.332002 -0.365997,2.424002 -1.098,3.276c-0.779999,0.888 -1.823997,1.332 -3.132004,1.332c-1.259995,0 -2.267998,-0.431998 -3.023994,-1.296c-0.708004,-0.84 -1.062004,-1.896 -1.062004,-3.168c0,-1.332 0.366001,-2.424 1.098,-3.276c0.779999,-0.888 1.824005,-1.332 3.132004,-1.332c1.259995,0 2.267998,0.432 3.024002,1.296c0.707993,0.827998 1.061996,1.884 1.061996,3.167998l0,0.000001zm-1.601997,0.054c0,-0.875998 -0.204002,-1.625998 -0.612,-2.25c-0.468002,-0.731998 -1.115997,-1.098 -1.944,-1.098c-0.851997,0 -1.512001,0.366 -1.980003,1.098c-0.407997,0.624002 -0.612,1.386002 -0.612,2.286c0,0.864 0.209999,1.614 0.630005,2.25c0.467995,0.732 1.115997,1.098001 1.944,1.098001c0.815994,0 1.463997,-0.372002 1.944,-1.116c0.419998,-0.648 0.629997,-1.404 0.629997,-2.268002z" id="svg_4"/>
  <path fill="#ffffff" d="m68.051003,15.682l-1.566002,0l0,-5.058002c0,-1.704 -0.653999,-2.556 -1.961998,-2.556c-0.624001,0 -1.142998,0.237 -1.556999,0.711s-0.621002,1.023 -0.621002,1.646998l0,5.256001l-1.566002,0l0,-6.354c0,-0.72 -0.023994,-1.506 -0.071999,-2.358l1.386002,0l0.090004,1.404l0.035995,0c0.239998,-0.444 0.588005,-0.809999 1.043999,-1.098c0.528,-0.324 1.122002,-0.486 1.782005,-0.486c0.767998,0 1.416,0.24 1.944,0.72c0.708,0.648 1.061996,1.625999 1.061996,2.934l0,5.238l0,0.000001z" id="svg_5"/>
  <path fill="#ffffff" d="m77.723,10.822c0,0.312 -0.017998,0.570002 -0.054001,0.774l-5.975998,0c0.024002,1.02 0.323997,1.794 0.900002,2.322001c0.503998,0.467999 1.181999,0.701999 2.033997,0.701999c0.863998,0 1.644005,-0.144 2.340004,-0.432l0.269997,1.115999c-0.779999,0.348 -1.727997,0.522 -2.844002,0.522c-1.295998,0 -2.319,-0.396 -3.069,-1.188002c-0.75,-0.791999 -1.125,-1.854001 -1.125,-3.186c0,-1.356 0.362999,-2.474998 1.089005,-3.356998c0.725998,-0.882 1.700996,-1.323 2.924995,-1.323c1.235001,0 2.166,0.474 2.790001,1.422c0.479004,0.731999 0.720001,1.608001 0.720001,2.627999l0,0.000001zm-1.513,-0.36c0.012001,-0.66 -0.125999,-1.217999 -0.414001,-1.674c-0.373001,-0.588 -0.942001,-0.882 -1.709999,-0.882c-0.720001,0 -1.295998,0.288 -1.727997,0.864c-0.348999,0.467999 -0.564003,1.032 -0.648003,1.691998l4.5,0l0,0.000001z" id="svg_6"/>
  <text fill="#ffffff" stroke-width="0" stroke-dasharray="null" stroke-linejoin="null" stroke-linecap="null" x="86.074468" y="18.718319" id="svg_7" font-size="24" font-family="Sans-serif" text-anchor="middle" xml:space="preserve" transform="matrix(0.6619718074798584,0,0,0.7085230946540833,27.771128691732883,3.9713728353381157) ">6</text>
  <text transform="matrix(0.5104166865348816,0,0,0.5272624079663295,52.27343539893628,6.460021815039049) " xml:space="preserve" text-anchor="middle" font-family="Sans-serif" font-size="24" id="svg_9" y="15.568841" x="90.321429" stroke-linecap="null" stroke-linejoin="null" stroke-dasharray="null" stroke-width="0" fill="#ffffff">壳</text>
 </g>
</svg>
